<?xml version="1.0" standalone="no"?>
<!DOCTYPE svg PUBLIC "-//W3C//DTD SVG 20010904//EN"
 "http://www.w3.org/TR/2001/REC-SVG-20010904/DTD/svg10.dtd">
<svg version="1.0" xmlns="http://www.w3.org/2000/svg"
 width="270.000000pt" height="270.000000pt" viewBox="0 0 270.000000 270.000000"
 preserveAspectRatio="xMidYMid meet">
<metadata>
Created by potrace 1.14, written by Peter Selinger 2001-2017
</metadata>
<g transform="translate(0.000000,270.000000) scale(0.100000,-0.100000)"
fill="#000000" stroke="none">
<path d="M602 1652 c-39 -2 -55 -8 -59 -20 -4 -9 -13 -22 -21 -28 -12 -8 -12
-15 -3 -32 11 -21 18 -22 176 -22 l165 0 6 27 c5 17 3 28 -4 31 -7 2 -12 10
-12 17 0 18 -23 25 -79 25 l-47 0 4 -40 c4 -40 4 -40 -31 -40 -35 0 -36 1 -39
43 l-3 42 -53 -3z m2 -34 c11 -42 7 -49 -21 -46 -28 3 -40 25 -29 54 9 22 43
17 50 -8z m31 12 c3 -5 1 -10 -4 -10 -6 0 -11 5 -11 10 0 6 2 10 4 10 3 0 8
-4 11 -10z m135 0 c0 -5 -7 -10 -16 -10 -8 0 -12 5 -9 10 3 6 10 10 16 10 5 0
9 -4 9 -10z m58 -27 c3 -30 1 -33 -22 -33 -23 0 -26 4 -26 36 0 31 3 35 23 32
17 -2 23 -11 25 -35z m-284 -18 c3 -8 1 -15 -4 -15 -6 0 -10 7 -10 15 0 8 2
15 4 15 2 0 6 -7 10 -15z m106 0 c0 -8 -7 -15 -15 -15 -8 0 -15 7 -15 15 0 8
7 15 15 15 8 0 15 -7 15 -15z m120 0 c0 -8 -7 -15 -15 -15 -8 0 -15 7 -15 15
0 8 7 15 15 15 8 0 15 -7 15 -15z m90 -5 c0 -5 -4 -10 -10 -10 -5 0 -10 5 -10
10 0 6 5 10 10 10 6 0 10 -4 10 -10z"/>
<path d="M416 1539 c-30 -36 -31 -40 -10 -80 14 -29 14 -32 -3 -44 -17 -13
-16 -14 8 -23 51 -20 108 -113 60 -97 -22 7 -34 -6 -25 -29 9 -24 43 -30 65
-10 16 15 19 31 19 117 l0 99 -27 -6 c-17 -5 -29 -3 -34 6 -13 21 -11 24 19
23 36 0 43 36 10 59 -33 23 -53 20 -82 -15z m50 -5 c-9 -8 -16 -26 -16 -38 0
-27 35 -63 45 -47 17 29 25 3 25 -83 0 -72 -4 -97 -15 -106 -20 -17 -32 -5
-15 15 18 22 4 64 -36 101 -19 18 -30 36 -24 39 6 4 4 17 -5 35 -27 52 -12
100 31 100 23 0 24 -1 10 -16z m44 -8 c0 -15 -18 -31 -26 -23 -7 7 7 37 17 37
5 0 9 -6 9 -14z"/>
<path d="M454 1431 c10 -11 15 -25 11 -30 -3 -6 1 -11 9 -11 9 0 16 -6 16 -14
0 -8 4 -17 9 -21 5 -3 9 10 8 30 -1 23 -6 34 -14 30 -7 -2 -17 5 -23 15 -6 11
-16 20 -22 20 -6 0 -3 -9 6 -19z"/>
<path d="M888 1554 c-16 -8 -28 -21 -28 -28 0 -20 27 -39 46 -32 11 4 14 1 12
-12 -2 -11 -13 -17 -33 -17 -30 0 -30 -1 -31 -55 -1 -36 0 -41 3 -15 6 62 10
70 29 54 14 -11 19 -10 35 10 23 28 24 40 3 69 -14 20 -14 22 4 22 40 0 57
-47 33 -94 -16 -31 -17 -36 -3 -41 13 -5 11 -9 -11 -24 -33 -21 -56 -51 -57
-71 0 -8 9 -1 20 17 10 18 33 39 50 48 29 15 31 18 16 34 -11 12 -13 20 -5 28
20 20 13 86 -11 105 -27 22 -36 22 -72 2z m12 -34 c0 -11 -4 -20 -9 -20 -11 0
-22 26 -14 34 12 12 23 5 23 -14z"/>
<path d="M613 1533 c42 -2 112 -2 155 0 42 1 7 3 -78 3 -85 0 -120 -2 -77 -3z"/>
<path d="M1090 1531 c0 -5 7 -11 15 -15 12 -4 15 -25 15 -101 0 -119 18 -127
22 -8 l3 86 65 -86 c36 -47 71 -86 78 -87 9 0 12 28 12 110 0 131 -18 150 -22
23 l-3 -88 -65 87 c-54 72 -70 87 -92 88 -16 0 -28 -4 -28 -9z"/>
<path d="M1410 1530 c0 -5 4 -10 9 -10 5 0 10 -36 12 -79 5 -90 20 -117 76
-127 39 -7 89 11 103 37 6 10 10 50 10 89 0 54 4 72 15 76 24 9 17 24 -10 24
-24 0 -25 -2 -25 -72 0 -95 -14 -122 -64 -126 -62 -5 -76 15 -76 115 0 82 0
83 -25 83 -14 0 -25 -4 -25 -10z"/>
<path d="M1730 1530 c0 -5 5 -10 10 -10 6 0 10 -40 10 -100 0 -80 3 -100 14
-100 10 0 16 14 18 42 4 63 31 63 84 3 22 -26 47 -46 54 -43 9 3 3 16 -20 41
l-32 37 26 21 c34 27 36 81 4 103 -26 18 -168 23 -168 6z m155 -30 c37 -31 2
-70 -61 -70 l-44 0 0 38 c0 21 3 42 8 46 10 11 80 0 97 -14z"/>
<path d="M2100 1517 c0 -14 -18 -64 -40 -111 -29 -65 -35 -86 -24 -86 8 0 20
11 26 25 10 23 17 25 74 25 59 0 64 -2 70 -25 4 -15 13 -25 24 -25 17 0 17 2
4 30 -9 16 -31 65 -49 107 -28 65 -38 79 -59 81 -22 3 -26 -1 -26 -21z m60
-63 c11 -25 20 -50 20 -55 0 -5 -20 -9 -45 -9 -29 0 -45 4 -45 13 1 16 37 97
45 97 3 0 15 -21 25 -46z"/>
<path d="M542 1408 l2 -113 5 105 6 105 137 3 137 3 4 -28 c4 -26 4 -26 6 5
l1 32 -150 0 -150 0 2 -112z"/>
<path d="M567 1493 c-2 -4 -5 -48 -6 -98 -2 -105 14 -146 68 -182 40 -27 71
-29 117 -7 60 29 75 67 72 186 l-3 103 -122 3 c-67 1 -123 -1 -126 -5z m64
-23 c19 -15 20 -19 8 -20 -9 0 -20 -7 -23 -16 -9 -23 -36 1 -36 32 0 29 20 31
51 4z m177 -67 c2 -46 -1 -83 -6 -83 -19 0 -31 27 -34 75 l-3 50 -50 3 c-48 3
-75 15 -75 34 0 5 37 8 83 6 l82 -3 3 -82z m-50 -34 c2 -52 -1 -70 -15 -87
-28 -31 -56 -35 -86 -11 -25 18 -27 27 -27 88 0 37 3 71 7 75 4 4 32 6 63 4
l55 -3 3 -66z m-143 -25 c1 -49 5 -60 30 -81 21 -18 35 -23 54 -18 46 11 64
10 68 -3 3 -7 -11 -19 -33 -28 -31 -13 -45 -14 -75 -5 -62 19 -79 50 -79 144
0 77 1 80 17 64 12 -11 18 -35 18 -73z m180 -59 c0 -31 -19 -45 -28 -21 -8 20
4 57 17 53 6 -2 11 -16 11 -32z"/>
<path d="M657 1393 c-4 -3 -7 -24 -7 -45 0 -27 4 -38 15 -38 8 0 15 5 15 12 0
9 3 9 12 0 7 -7 20 -12 30 -12 14 0 18 8 18 39 0 22 -5 43 -11 46 -14 9 -38
-25 -31 -44 4 -9 1 -12 -7 -7 -7 5 -10 14 -7 21 5 15 -17 38 -27 28z m10 -60
c-3 -10 -5 -2 -5 17 0 19 2 27 5 18 2 -10 2 -26 0 -35z m63 17 c0 -16 -4 -30
-10 -30 -5 0 -10 14 -10 30 0 17 5 30 10 30 6 0 10 -13 10 -30z"/>
<path d="M832 1425 c0 -16 2 -22 5 -12 2 9 2 23 0 30 -3 6 -5 -1 -5 -18z"/>
<path d="M915 1430 c-10 -11 -22 -17 -26 -14 -5 3 -9 -12 -8 -33 0 -33 1 -35
9 -15 5 12 15 22 21 22 7 0 9 3 6 7 -4 3 0 17 8 30 19 28 14 30 -10 3z"/>
<path d="M832 1370 c0 -14 2 -19 5 -12 2 6 2 18 0 25 -3 6 -5 1 -5 -13z"/>
<path d="M852 1318 c-3 -57 44 -98 76 -66 23 23 14 45 -17 44 -29 -1 -29 -2
-15 -23 8 -13 11 -23 6 -23 -18 0 -41 36 -45 70 l-4 35 -1 -37z"/>
<path d="M830 1301 c0 -26 -32 -80 -57 -96 -14 -10 -46 -21 -72 -26 l-46 -8
45 3 c25 2 54 7 65 11 16 6 18 5 8 -5 -7 -7 -36 -15 -66 -18 -44 -3 -63 0
-101 21 -26 14 -54 33 -62 44 -13 17 -15 17 -25 1 -5 -10 -19 -18 -29 -18 -11
0 -20 -2 -20 -5 0 -21 41 -59 93 -87 52 -27 73 -32 127 -32 44 -1 76 5 100 18
19 10 47 25 62 33 44 23 74 73 44 73 -7 0 -19 7 -26 15 -11 13 -16 12 -42 -10
-41 -35 -55 -31 -24 6 27 32 43 75 32 86 -3 4 -6 1 -6 -6z m-283 -97 c3 -8 -1
-23 -10 -31 -13 -13 -19 -14 -31 -3 -20 16 -20 30 -1 30 8 0 15 5 15 10 0 16
20 12 27 -6z m341 -10 c1 -1 0 -9 -4 -18 -8 -20 -28 -21 -44 -1 -19 23 6 50
29 33 9 -7 17 -13 19 -14z m-193 -44 c33 0 62 7 84 21 30 18 35 19 49 5 14
-14 14 -17 -2 -35 -21 -23 -97 -51 -135 -51 -32 1 -92 22 -127 45 -24 16 -25
18 -9 35 17 18 18 18 53 -1 23 -11 56 -19 87 -19z"/>
<path d="M610 1136 c0 -9 5 -16 10 -16 6 0 10 4 10 9 0 6 -4 13 -10 16 -5 3
-10 -1 -10 -9z"/>
<path d="M760 1130 c0 -5 5 -10 10 -10 6 0 10 5 10 10 0 6 -4 10 -10 10 -5 0
-10 -4 -10 -10z"/>
<path d="M710 1120 c0 -5 5 -10 10 -10 6 0 10 5 10 10 0 6 -4 10 -10 10 -5 0
-10 -4 -10 -10z"/>
<path d="M550 1282 c0 -24 32 -69 60 -86 42 -24 48 -19 9 7 -19 12 -42 38 -51
57 -10 19 -18 29 -18 22z"/>
<path d="M1342 1173 l3 -58 38 -3 c21 -2 37 1 37 7 0 6 -13 11 -30 11 -20 0
-30 5 -30 15 0 9 9 15 25 15 14 0 25 5 25 10 0 6 -11 10 -25 10 -16 0 -25 6
-25 15 0 10 10 15 30 15 17 0 30 5 30 10 0 6 -18 10 -40 10 l-41 0 3 -57z"/>
<path d="M1482 1173 c3 -57 3 -58 36 -61 18 -2 32 1 32 7 0 6 -11 11 -25 11
-23 0 -25 4 -25 44 0 25 -5 48 -11 51 -7 5 -9 -13 -7 -52z"/>
<path d="M1613 1170 c0 -36 2 -50 4 -32 2 17 2 47 0 65 -2 17 -4 3 -4 -33z"/>
<path d="M1675 1220 c3 -5 12 -10 20 -10 10 0 15 -16 18 -52 l3 -53 2 53 c2
45 5 52 22 52 11 0 20 5 20 10 0 6 -21 10 -46 10 -27 0 -43 -4 -39 -10z"/>
<path d="M1815 1218 c-2 -7 -3 -33 -2 -58 2 -44 2 -45 40 -48 21 -2 37 1 37 7
0 6 -13 11 -30 11 -20 0 -30 5 -30 15 0 9 9 15 25 15 14 0 25 5 25 10 0 6 -11
10 -25 10 -16 0 -25 6 -25 15 0 10 10 15 30 15 17 0 30 5 30 10 0 15 -70 12
-75 -2z"/>
</g>
</svg>
